<svg xmlns="http://www.w3.org/2000/svg" style="display:none">
  <symbol id="icone-lancar" viewBox="0 0 24 24" fill="none" stroke="currentColor" stroke-width="1.5">
    <path d="M12 5v14M5 12h14" stroke-linecap="round"/>
  </symbol>
  <symbol id="icone-painel" viewBox="0 0 24 24" fill="none" stroke="currentColor" stroke-width="1.5">
    <rect x="4" y="4" width="7" height="7" rx="1"/>
    <rect x="13" y="4" width="7" height="4" rx="1"/>
    <rect x="13" y="11" width="7" height="9" rx="1"/>
    <rect x="4" y="14" width="7" height="6" rx="1"/>
  </symbol>
  <symbol id="icone-clientes" viewBox="0 0 24 24" fill="none" stroke="currentColor" stroke-width="1.5">
    <path d="M4 20v-1a4 4 0 0 1 4-4h1a4 4 0 0 1 4 4v1M13 20v-1a4 4 0 0 1 4-4 3 3 0 1 0-2-5.24" stroke-linecap="round" stroke-linejoin="round"/>
    <circle cx="8.5" cy="8.5" r="3"/>
  </symbol>
  <symbol id="icone-advogados" viewBox="0 0 24 24" fill="none" stroke="currentColor" stroke-width="1.5">
    <path d="M12 3v18M7 7l-4 6a3 3 0 0 0 6 0zM17 7l-4 6a3 3 0 0 0 6 0z" stroke-linecap="round" stroke-linejoin="round"/>
    <path d="M4 13h6M14 13h6M9 21h6" stroke-linecap="round"/>
  </symbol>
  <symbol id="icone-tabelas" viewBox="0 0 24 24" fill="none" stroke="currentColor" stroke-width="1.5">
    <rect x="4" y="4" width="16" height="16" rx="1"/>
    <path d="M4 10h16M10 4v16" />
  </symbol>
  <symbol id="icone-logs" viewBox="0 0 24 24" fill="none" stroke="currentColor" stroke-width="1.5">
    <circle cx="12" cy="12" r="8"/>
    <path d="M12 8v4l3 2" stroke-linecap="round" stroke-linejoin="round"/>
  </symbol>
  <symbol id="icone-busca" viewBox="0 0 24 24" fill="none" stroke="currentColor" stroke-width="1.5">
    <circle cx="11" cy="11" r="6"/>
    <path d="M20 20l-4.5-4.5" stroke-linecap="round"/>
  </symbol>
  <symbol id="icone-seta" viewBox="0 0 24 24" fill="none" stroke="currentColor" stroke-width="1.5">
    <path d="M6 9l6 6 6-6" stroke-linecap="round" stroke-linejoin="round"/>
  </symbol>
  <symbol id="icone-fechar" viewBox="0 0 24 24" fill="none" stroke="currentColor" stroke-width="1.5">
    <path d="M6 6l12 12M18 6L6 18" stroke-linecap="round"/>
  </symbol>
  <symbol id="icone-adicionar" viewBox="0 0 24 24" fill="none" stroke="currentColor" stroke-width="1.5">
    <path d="M12 5v14M5 12h14" stroke-linecap="round"/>
  </symbol>
  <symbol id="icone-editar" viewBox="0 0 24 24" fill="none" stroke="currentColor" stroke-width="1.5">
    <path d="M4 20l1-4 11-11 3 3-11 11-4 1z" stroke-linecap="round" stroke-linejoin="round"/>
  </symbol>
  <symbol id="icone-check" viewBox="0 0 24 24" fill="none" stroke="currentColor" stroke-width="1.5">
    <path d="M5 13l4 4 10-10" stroke-linecap="round" stroke-linejoin="round"/>
  </symbol>
  <symbol id="icone-alerta" viewBox="0 0 24 24" fill="none" stroke="currentColor" stroke-width="1.5">
    <path d="M12 4l9 16H3z" stroke-linejoin="round"/>
    <path d="M12 10v4M12 17h.01" stroke-linecap="round"/>
  </symbol>
  <symbol id="icone-arrastar" viewBox="0 0 24 24" fill="currentColor">
    <circle cx="9" cy="6" r="1.3"/><circle cx="15" cy="6" r="1.3"/>
    <circle cx="9" cy="12" r="1.3"/><circle cx="15" cy="12" r="1.3"/>
    <circle cx="9" cy="18" r="1.3"/><circle cx="15" cy="18" r="1.3"/>
  </symbol>
</svg>
